<svg xmlns="http://www.w3.org/2000/svg" xmlns:xlink="http://www.w3.org/1999/xlink" width="20" height="20" viewBox="0 0 20 20">
    <defs>

    </defs>
    <g fill="none" fill-rule="evenodd">
        <g fill="#FFF">
            <path d="M8.524 10L4.257 5.56a.94.94 0 0 1 0-1.292.855.855 0 0 1 1.243 0L10 8.95l4.5-4.682a.855.855 0 0 1 1.243 0 .94.94 0 0 1 0 1.293L11.476 10l4.267 4.44a.94.94 0 0 1 0 1.292.855.855 0 0 1-1.243 0L10 11.05l-4.5 4.682a.855.855 0 0 1-1.243 0 .94.94 0 0 1 0-1.293L8.524 10z"/>
        </g>
    </g>
</svg>
